<svg xmlns="http://www.w3.org/2000/svg" viewBox="0 0 512 512">
    <path fill="#595bd400"
        d="M487.929,139.593a10.05,10.05,0,0,0-10.049-10.05H387.032a10.05,10.05,0,0,0-10.049,10.05v62.948a5.715,5.715,0,0,0,5.714,5.715h53.668A24.535,24.535,0,0,1,460.9,232.791v35a5.715,5.715,0,0,0,5.715,5.714H477.88a10.049,10.049,0,0,0,10.049-10.05Z"
        class="color7dd0f4 svgShape"></path>
    <path fill="#fe9526"
        d="M209.08 330.331a6.107 6.107 0 0 0-6.107-6.107H157.426a6.107 6.107 0 0 0-6.107 6.107V478.873a6.718 6.718 0 0 0 6.718 6.718h44.325a6.718 6.718 0 0 0 6.718-6.718zM314.289 394.889a6.108 6.108 0 0 0-6.108-6.108H262.635a6.108 6.108 0 0 0-6.108 6.108v83.984a6.718 6.718 0 0 0 6.718 6.718h44.326a6.718 6.718 0 0 0 6.718-6.718zM28.829 267.6H46.11V478.873a6.718 6.718 0 0 0 6.718 6.718H97.154a6.718 6.718 0 0 0 6.718-6.718V267.6h17.282a4.752 4.752 0 0 0 4.263-6.851L79.254 166.962a4.751 4.751 0 0 0-8.526 0L24.565 260.744A4.752 4.752 0 0 0 28.829 267.6z"
        class="colorff9292 svgShape"></path>
    <path fill="#ffffff"
        d="M335.467 232.791V421.722a10.051 10.051 0 0 0 10.05 10.05h90.848a10.05 10.05 0 0 0 10.049-10.05V232.791a10.049 10.049 0 0 0-10.049-10.049H345.517A10.05 10.05 0 0 0 335.467 232.791zm32.174 30.326h46.6a7.243 7.243 0 0 1 7.243 7.243 7.321 7.321 0 0 1-7.243 7.244h-46.6a7.244 7.244 0 0 1 0-14.487zm0 37.862h46.6a7.243 7.243 0 0 1 0 14.486h-46.6a7.243 7.243 0 1 1 0-14.486zm0 37.862h46.6a7.243 7.243 0 0 1 0 14.486h-46.6a7.243 7.243 0 0 1 0-14.486zM220.718 291.323h34.1a2.261 2.261 0 0 0 2.261-2.261V266.787l2.6-.763c27.536-8.076 43.329-30.426 43.329-61.321 0-15.553-6.173-30.149-18.347-43.385l-.383-.416a89.471 89.471 0 0 0-11.853-10.2c-29.251-21.105-38.362-29.443-38.392-40.491-.016-6.276 4.791-11.54 10.952-11.54 12.582 0 17.752 12.192 19.63 18.806a5.505 5.505 0 0 0 5.478 4l35.093-1.123a5.5 5.5 0 0 0 5.338-5.735c-1.64-34.043-17.6-55.152-47.509-62.831l-2.721-.7V28.669a2.26 2.26 0 0 0-2.261-2.26h-34.1a2.26 2.26 0 0 0-2.261 2.26V50.945l-2.6.763c-27.536 8.076-43.329 30.426-43.329 61.321 0 15.552 6.173 30.149 18.346 43.386l.37.4a89.535 89.535 0 0 0 11.867 10.212c29.25 21.1 38.361 29.442 38.391 40.49.016 6.277-4.79 11.541-10.951 11.541-13.29 0-18.11-11.928-19.765-18.588a5.526 5.526 0 0 0-5.535-4.217l-34.9 1.116a5.507 5.507 0 0 0-5.339 5.736c1.641 34.042 17.6 55.152 47.51 62.831l2.721.7v22.428A2.26 2.26 0 0 0 220.718 291.323z"
        class="color7dd0f4 svgShape"></path>
</svg>