<svg xmlns="http://www.w3.org/2000/svg" enable-background="new 0 0 50 50" viewBox="0 0 50 50">
  <path
    d="M38.7 35.4c-.8-.8-2.1-.7-3 .1C34.9 36.4 34 37 33.3 37c-7.1.2-19.8-12.5-19.6-19.6 0-.7.7-1.6 1.5-2.5.8-.9.9-2.2.1-3L11 7.6c-.7-.7-1.9-.8-2.7-.1C5.3 9.8 1.8 12.9 1.7 15c-.3 11.6 22.4 34.3 34 34 2.1-.1 5.2-3.6 7.5-6.5.7-.8.6-2-.1-2.7L38.7 35.4zM45.9 22.7c-1.3 0-2.4-1.1-2.4-2.4 0-8-6.5-14.5-14.5-14.5-1.3 0-2.4-1.1-2.4-2.4C26.6 2.1 27.6 1 29 1c10.6 0 19.3 8.7 19.3 19.3C48.3 21.6 47.2 22.7 45.9 22.7z"
    fill="#000000" class="color000 svgShape"></path>
  <path
    d="M35.5,22.7c-1.3,0-2.4-1.1-2.4-2.4c0-2.3-1.8-4.1-4.1-4.1c-1.3,0-2.4-1.1-2.4-2.4c0-1.3,1.1-2.4,2.4-2.4		c4.9,0,8.9,4,8.9,8.9C37.9,21.6,36.8,22.7,35.5,22.7z"
    fill="#000000" class="color000 svgShape"></path>
</svg>