<svg xmlns="http://www.w3.org/2000/svg" viewBox="0 0 50 50">
  <ellipse cx="33" cy="35.7" fill="#b36d23" rx="15.8" ry="11.8" class="colorb36523 svgShape"></ellipse>
  <ellipse cx="33" cy="35.7" fill="#63a8fa" rx="15.8" ry="11.8" class="color63affa svgShape"></ellipse>
  <path fill="#167ffc"
    d="M39.8 27.6v2.2c0 7.3-5.9 13.2-13.2 13.2-1.8 0-2.4 2.6-.6 3.2 2.1.8 4.5 1.2 7.1 1.2 8.7 0 15.8-5.3 15.8-11.8 0-3.9-2.6-7.4-6.6-9.6-1.2-.5-2.5.4-2.5 1.6z"
    class="color529ffb svgShape"></path>
  <path fill="#595bd4"
    d="M29.8 31.4c0 2-2.9 5.3-4.8 5.3s-3.4-1.6-3.4-3.6 1.5-3.6 3.4-3.6c1.8 0 4.8-.1 4.8 1.9z"
    class="color82c8fb svgShape"></path>
  <path fill="#167ffc" d="m44.8 42.4 1.8 3.5c.3.6-.2 1.4-.9 1.2l-9.1-1.8"
    class="color529ffb svgShape"></path>
  <path fill="#e7e7e7"
    d="M31.2 34.1H4.9c-2 0-3.6-1.6-3.6-3.6v-15c0-2 1.6-3.6 3.6-3.6h26.3c2 0 3.6 1.6 3.6 3.6v15c0 2-1.6 3.6-3.6 3.6z"
    class="colore7e7e7 svgShape"></path>
  <path fill="#d3d5d3"
    d="M30.8 11.8c-1.6 0-2.9 1.1-2.9 2.4V17c0 5.3-5.2 9.5-11.6 9.5H6.5c-2.9 0-5.2 1.9-5.2 4.3 0 1.8 1.8 3.3 4 3.3h25.5c2.2 0 4-1.5 4-3.3V15.1c0-1.8-1.8-3.3-4-3.3z"
    class="colord5d3d4 svgShape"></path>
  <path fill="#53d86a"
    d="M28.6 18.1H7.4c-.5 0-.8-.4-.8-.8v-.1c0-.5.4-.8.8-.8h21.2c.5 0 .8.4.8.8v.1c.1.5-.3.8-.8.8zm0 5.8H7.4c-.5 0-.8-.4-.8-.8V23c0-.5.4-.8.8-.8h21.2c.5 0 .8.4.8.8.1.5-.3.9-.8.9zm0 5.7H7.4c-.5 0-.8-.4-.8-.8v-.1c0-.5.4-.8.8-.8h21.2c.5 0 .8.4.8.8v.1c.1.4-.3.8-.8.8z"
    class="colorc4c4c4 svgShape"></path>
  <path fill="#e7e7e7"
    d="M32.1 23.4c-.6 0-1.1-.5-1.1-1.1v-6.2c0-.6.5-1.1 1.1-1.1.6 0 1.1.5 1.1 1.1v6.2c0 .6-.5 1.1-1.1 1.1z"
    class="colore7e7e7 svgShape"></path>
  <path fill="#d3d5d3" d="m9.9 33.1-2.4 4.3c-.5.8.4 1.8 1.3 1.4l14.4-6.4"
    class="colord5d3d4 svgShape"></path>
  <circle cx="34.4" cy="10.8" r="8.3" fill="#fc9a32" class="colorfc4a32 svgShape"></circle>
  <path fill="#e28a2d"
    d="M37.4 5.6c0 4.3-3.5 7.7-7.7 7.7-1.5 0-2.5 1.8-1.4 3 1.8 2.1 4.7 3.2 7.8 2.6 3.2-.6 5.8-3.2 6.5-6.3.7-3.2-.5-6.2-2.7-8-1.1-.9-2.5-.3-2.5 1z"
    class="colore23e2d svgShape"></path>
  <path fill="#fe9526"
    d="M34 7.1c0 1.6-1.9 4.5-3 4.5s-2-1.3-2-2.9.9-2.9 2-2.9c1.2-.1 3-.3 3 1.3zM36 17.6c-.5 0-.9-.3-1-.8-.1-.5.3-1.1.8-1.2 1.7-.3 3-1.6 3.4-3.3.1-.5.6-.9 1.2-.8.5.1.9.6.8 1.2-.5 2.4-2.5 4.4-4.9 4.9H36z"
    class="colorff6252 svgShape"></path>
  <path fill="#e7e7e7"
    d="M36.5 6.6c.5.5.8 1.1.8 1.8 0 .3-.1.7-.2.9-.1.3-.3.5-.5.7-.2.2-.4.4-.7.6-.4.3-.7.6-.9.8-.2.2-.3.5-.3.9 0 .1-.1.3-.2.4-.1.1-.3.2-.4.2-.2 0-.3-.1-.4-.2-.1-.1-.2-.2-.2-.4 0-.4.1-.8.2-1.1.1-.3.3-.6.5-.8.2-.2.4-.4.8-.7.3-.3.6-.5.7-.7.2-.2.2-.4.2-.7 0-1-.6-1.5-1.9-1.5-.3 0-.6 0-.9.1-.3.1-.6.2-.8.3-.1.1-.2.1-.3.1-.1 0-.3-.1-.4-.2-.1-.1-.2-.2-.2-.4s.1-.4.3-.5c.4-.2.7-.4 1.1-.5.4-.1.8-.1 1.2-.1 1.3.3 2 .6 2.5 1zm-1.7 7.5c.2.2.2.3.2.6 0 .2-.1.4-.2.6-.2.2-.3.2-.6.2-.2 0-.4-.1-.6-.2-.2-.2-.2-.3-.2-.6 0-.2.1-.4.2-.6.2-.2.3-.2.6-.2.3-.1.5 0 .6.2z"
    class="colore7e7e7 svgShape"></path>
</svg>