<svg xmlns="http://www.w3.org/2000/svg" fill-rule="evenodd" clip-rule="evenodd"
    image-rendering="optimizeQuality" shape-rendering="geometricPrecision"
    text-rendering="geometricPrecision" viewBox="0 0 1706.66 1706.66">
    <path
        d="M628.11 1501.59l-181.76 0c-122.69,0.73 -117.57,-105.67 -116.61,-188.43l-61.87 -50.83c-30.73,-25.25 -4.67,-54.46 21.79,-73.98 -42.44,-20.3 -34.52,-38.2 -33.68,-95.6l-41.19 -18.88c-32.38,-10.32 -63.8,-29.41 -72.23,-64.63 -7.79,-32.59 8.76,-66.02 31.05,-89.09l111.89 -149.05c-9.04,-43.41 -13.62,-87.74 -13.62,-132.08 0,-852.29 1294.17,-852.27 1294.17,0 0,152.59 -132.7,469.22 -236.26,587.67l0 439.53c0,47.37 -71.93,47.35 -71.93,0l0 -453.51c0,-9.29 3.6,-18.23 10.04,-24.93 94.36,-98.15 226.21,-412.72 226.21,-548.78 0,-755.63 -1150.28,-757.68 -1150.28,0 0,44.46 5.19,88.92 15.4,132.19 2.44,10.35 0.15,21.36 -6.26,29.87l-127.09 168.58c-24.65,23.89 -11.56,27.07 13.39,36.54l67.72 30.85c12.81,5.83 21.02,18.62 21.02,32.7l0 56.12c70.02,29.79 98.89,54.51 21.02,109.72 65.75,51.69 52.71,42.13 52.71,135.69 0,33.43 2.48,58.9 43.92,58.39l218.45 -0.02c19.85,0 35.96,16.12 35.96,35.96l-0 204.91c0,47.32 -71.97,47.36 -71.97,0l0 -168.93z"
        fill="white" class="color000 svgShape"></path>
    <path
        d="M566.34 741.07c23.97 41.52 91 49.95 174.86 33.86-10.4-37.13-18.33-78.16-23.3-122.05-34.34-25.56-65.89-52.69-93.28-80.38-55.89 64.59-82.33 126.92-58.28 168.57zM791.32 804.48c64.5 178.04 169.75 178.24 234.35.22-38.71-9.85-78.27-23.83-117.39-40.95-39.18 17.04-78.63 30.91-116.96 40.73zM1075.91 774.75c186.23 35.48 240.42-58.9 116.67-202.04-27.51 28-59.15 55.17-93.47 80.63-4.97 43.64-12.86 84.46-23.2 121.42zM958.04 740.33c27.33 10.46 54.2 19.13 79.96 25.84 7.09-25.21 13.07-52.79 17.66-82.47-31.28 20.61-64.12 39.67-97.63 56.63zM761.35 683.41c4.61 29.84 10.61 57.57 17.74 82.89 25.72-6.73 52.54-15.44 79.82-25.92-33.57-17.11-66.39-36.31-97.57-56.97zM755.07 632.15c48.43 34.17 101.03 63.78 153.38 87.47 52.45-23.8 105.12-53.51 153.56-87.68 5.27-57.14 5.3-118.75.09-175.93-47.19-33.99-99.62-65.15-153.57-90.2-53.95 25.05-106.37 56.2-153.56 90.18-5.22 57.31-5.19 118.91.1 176.16zm153.47-5.36c-109.59 0-109.59-166.54 0-166.54 109.6 0 109.6 166.54 0 166.54zM650.98 544.06c19.17 19.8 40.18 38.78 62.5 56.76l-.09-113.06c-22.71 18.42-43.69 37.34-62.41 56.3zM672.14 305.22c-131.9 0-143.53 83.03-64.5 188.33 5.23 6.98 10.71 13.87 16.42 20.68 26.42-27.13 57.77-54.4 93.95-81.02 5.02-43.8 12.97-84.74 23.39-121.8-23.65-4.04-46.85-6.2-69.26-6.2zM791.17 282.94c37.57 9.93 76.74 23.76 115.94 40.76 41.83-18.52 81.5-32.31 118.41-41.76-64.75-177.98-170.01-177.07-234.35 1zM1099.14 433.97c34.17 25.17 65.86 52.23 93.63 80.5 5.79-6.9 11.35-13.89 16.65-20.94 79.03-105.31 67.39-188.31-64.5-188.31-22.41 0-45.59 2.17-69.25 6.2 10.48 37.27 18.47 78.47 23.48 122.56zM1105.2 543.53c0 19.4-.55 38.46-1.61 57.11 22.31-17.96 43.3-36.88 62.43-56.6-18.71-18.94-39.67-37.84-62.35-56.25 1.01 18.22 1.53 36.82 1.53 55.74zM954.86 345.98c34.44 17.2 68.43 36.66 100.88 57.88-4.69-30.46-10.85-58.7-18.15-84.45-27.37 6.77-55.11 15.76-82.73 26.57zM761.43 403.13l99.7-57.57c-27.27-10.62-54.64-19.48-81.66-26.16-7.25 25.55-13.37 53.55-18.04 83.73z"
        fill="white" class="color000 svgShape"></path>
    <path d="M908.54 499.48c-57.97,0 -57.97,88.1 0,88.1 57.96,0 57.95,-88.1 0,-88.1z"
        fill="white" class="color000 svgShape"></path>
</svg>