<svg xmlns="http://www.w3.org/2000/svg" enable-background="new 0 0 3000 2000"
    viewBox="0 0 3000 2000">
    <switch>
        <g fill="#167ffc" class="color000 svgShape">
            <path fill="#252542"
                d="M1421.2,756.8c10.2-16.7,13.1-39.1,14.1-52.5c-0.1-15.4-0.6-30.7,1.4-46.1c3.3-26.6,17.5-38.2,25.2-47.7							c11.3-11.7,32-31.3,52.6-75.4c-17.4,46-37.2,64.4-45.1,75.6c-7.3,9.8-20.6,30-21.7,56.8c-0.7,15.5,1.1,30.7,2.5,46							c-0.2,15.3-9.7,37-17.4,49c-1.6,5.5,179.1,35.2,179.1,35.2c72.1-59.2,129.1-255.1,66.1-355.4							c-37.7-55.6-119.8-32.7-143.5,24.9c-2.8,5.6-5.1,11.5-6.8,17.9c-25.9,81.9-59.3,111.9-71.8,125.2							c-7.7,9.4-21.9,20.8-25.2,47.4c-2,15.4-1.4,30.7-1.4,46.1c-1,13.4-3.9,35.8-14.1,52.5C1409.5,763.7,1415.6,764.3,1421.2,756.8							z"
                class="color252542 svgShape"></path>
            <path fill="#d7dbd8"
                d="M2291.4,979.4c-52.1,185.3-153.2,312.2-225.7,283.5c-72.5-28.7-89.1-202.2-37-387.5								c52.1-185.3,124.9-211.8,197.5-183.1C2298.7,721,2343.5,794.1,2291.4,979.4z"
                class="colord7d9db svgShape"></path>
            <line x1="2161.1" x2="2073.7" y1="899" y2="767" fill="none" stroke="#ffffff"
                stroke-linecap="round" stroke-linejoin="round" stroke-miterlimit="10"
                stroke-width="7" class="colorStrokefff svgStroke"></line>
            <line x1="2135.8" x2="2039.9" y1="983.6" y2="839" fill="none" stroke="#ffffff"
                stroke-linecap="round" stroke-linejoin="round" stroke-miterlimit="10"
                stroke-width="7" class="colorStrokefff svgStroke"></line>
            <line x1="2226.1" x2="2057.6" y1="692.2" y2="1255.1" fill="none" stroke="#ffffff"
                stroke-linecap="round" stroke-linejoin="round" stroke-miterlimit="10"
                stroke-width="7" class="colorStrokefff svgStroke"></line>
            <line x1="2024.9" x2="2056.7" y1="1368.3" y2="1261" fill="none" stroke="#dddddd"
                stroke-linecap="round" stroke-linejoin="round" stroke-miterlimit="10"
                stroke-width="7" class="colorStrokeddd svgStroke"></line>
            <polygon fill="#eaeaea" points="2101.7 1741.4 2131.4 1741.4 2057.1 1494.2 1931 1494.2"
                class="coloreaeaea svgShape"></polygon>
            <polygon fill="#eaeaea" points="1152.1 1727.3 1122.4 1727.3 1196.7 1481.4 1322.8 1481.4"
                class="coloreaeaea svgShape"></polygon>
            <path fill="#ffa648"
                d="M1015.9 1294.7c25.5 104.3 10.8 222.7 129.2 234.3h969.6c118.3-11.6 103.7-130 129.2-234.3H1015.9zM2061.6 1229v-185.4c0-66.9-24.7-133.8-75.8-184.9-51.1-51.1-117.2-76.5-184.1-76.5h-339.9c-66.9 0-133.2 25.5-184.3 76.5-51.1 51.1-76 117.9-76 184.9V1229H2061.6z"
                class="colorffcb48 svgShape"></path>
            <path fill="#ffaa50"
                d="M2235.5,1284.4l-174.9-69.6h-860.8l-174.9,69.6c-7.5,2.6-11.3,8.9-8.7,13.8c2.6,4.9,10.8,9.3,19.7,9.3								h1188.7c8.9,0,17.1-4.4,19.7-9.3C2246.8,1293.3,2243,1287,2235.5,1284.4z"
                class="colorffb850 svgShape"></path>
            <path fill="#fe9526"
                d="M1891.6 935.4c-.3 0-.6.1-.9.1l-65.4-152.9c-14.5-38.8-83.5 39.1-83.5 39.1l48.9 167.3c-27 18-48.3 33.5-48.3 33.5l5.1 103.4c36.3-21 87.9-55.3 138.7-104C1907 1004.4 1908.2 960 1891.6 935.4zM1497.4 1022.4c0 0-29.2-21.3-62.5-42.8l60.6-149.7c-19.9-55.1-77-80.4-91.4-41.6l-67.6 163.1c-9.3 25.1-.8 65.5 22.9 75.9 48.9 45.8 98 78.3 132.8 98.5L1497.4 1022.4z"
                class="colorf5913d svgShape"></path>
            <path fill="#595bd4"
                d="M1824.7,768c-22.3-55-61.1-81.3-107.5-98.9c-19.5-11.5-42.1-16.5-64.5-17.5c-28-3-8.2-1-78.9-1.6									c-19.9,2.6-36.6,7.4-50.5,13.9c-52.8,17.7-97.5,43.4-122,104.1c-2.9,22.6,25.4,35.5,55.8,40c0,0.8,0.1,1.7,0.1,2.5									c3.8,39.1,4,80.8,8.2,114c0.1,0.7,291-1.9,291-1.9c7.4-51.9,14.1-81.7,18.1-115.6C1802.8,801.8,1827.4,789.1,1824.7,768z"
                class="color6969aa svgShape"></path>
            <polygon fill="#929299" points="1798.8 1290.5 1383.1 1362.8 1346.4 1179.5 1798.8 1186.1"
                class="color929799 svgShape"></polygon>
            <path fill="#c16e17"
                d="M1382.3,1337.8l-45.7,9.5l-0.4,0l-114.8-5.2c-48-2.2-18.5,88.4,36.6,84.4l89.5-20.1l50-11.1							L1382.3,1337.8z"
                class="colorc16017 svgShape"></path>
            <path fill="#c1c9c2"
                d="M1897.5,1158.6c44.8-11.1,89.8,14.7,100.4,57.7c8.4,33.7-6.9,68-35.5,86.6c-7.8,5.1-22.4,7.2-32.1,9.5							l-479,64L1408,1311L1897.5,1158.6z"
                class="colorc1c5c9 svgShape"></path>
            <path fill="#fe9526"
                d="M1817.7,1704.1l-94-66.2l-0.3-0.2l-30.4-35.5l-47.2,36.2l32.7,39.4l58.5,70.7							C1776.6,1785.7,1854.1,1731.5,1817.7,1704.1z"
                class="colorf5913d svgShape"></path>
            <path fill="#d2d8d3"
                d="M1388.2,1187.4c-28.4-31.1-75.6-34.2-105.4-7c-29.8,27.2-31,74.5-2.7,105.6l352.7,380.7l68.2-54.1							L1388.2,1187.4z"
                class="colord2d5d8 svgShape"></path>
            <path fill="#ffffff"
                d="M1843.9,1200.5c0,8.1-6.6,14.7-14.7,14.7h-439.7c-8.1,0-14.7-6.6-14.7-14.7v1.8							c0-8.1,6.6-14.7,14.7-14.7h439.7c8.1,0,14.7,6.6,14.7,14.7V1200.5z"
                class="colorfff svgShape"></path>
            <path fill="#ffffff"
                d="M1846.1,1168.3c0,10.8-8.8,19.6-19.6,19.6h-434.5c-10.8,0-19.6-8.8-19.6-19.6V937.8							c0-10.8,8.8-19.6,19.6-19.6h434.5c10.8,0,19.6,8.8,19.6,19.6V1168.3z"
                class="colorfff svgShape"></path>
            <path fill="#e6ede7"
                d="M1826.8,920h-77.5l-380.3,166.2v82.2c0,10.8,12.6,19.5,23.4,19.5h434.5c10.8,0,17.3-8.7,17.3-19.5V937.8							C1844,926.9,1837.6,920,1826.8,920z"
                class="colore6eaed svgShape"></path>
            <path fill="none" stroke="#ffffff" stroke-linecap="round" stroke-linejoin="round"
                stroke-miterlimit="10" stroke-width="7"
                d="M1633.9,1065c0,14.3-11.6,25.8-25.8,25.8c-14.3,0-25.8-11.6-25.8-25.8c0-14.3,11.6-25.9,25.8-25.9							C1622.3,1039.2,1633.9,1050.7,1633.9,1065z"
                class="colorStrokefff svgStroke"></path>
            <path fill="#fe9526"
                d="M1660.3,656.1l-15.6-100.5H1584L1572.2,658C1599,685.7,1639.1,684.3,1660.3,656.1z"
                class="colorf5913d svgShape"></path>
            <polygon fill="#c16e17" points="1653.3 621.7 1644.2 556.6 1583.6 556.6 1580.3 592.5"
                class="colorc16017 svgShape"></polygon>
            <path fill="#c16e17"
                d="M1574.3,512.8c3.4,5.3,2,12.5-3.1,16l0,0c-5.1,3.5-11.9,2-15.3-3.3l-9.2-14.7c-3.4-5.3-2-12.5,3.1-16							l0,0c5.1-3.5,11.9-2.1,15.3,3.3L1574.3,512.8z"
                class="colorc16017 svgShape"></path>
            <path fill="#fe9526"
                d="M1590.8,445.1c-12.8,23.1-20.1,30.1-33.1,48.2c3.5,27.3,10.7,63.7,16.5,70.4c11.5,15,33.8,25.2,43.2,25.3							l2.5,0c9.4-0.8,30.8-12.9,41.2-28.8c4.8-6.4,8.1-26.1,10-52.4C1661.9,472.4,1605.4,497.1,1590.8,445.1z"
                class="colorf5913d svgShape"></path>
            <path fill="#ffffff"
                d="M1565.9,531.9c0,3.9-3.1,7-7,7h-0.2c-3.9,0-7-3.1-7-7v-0.2c0-3.9,3.1-7,7-7h0.2c3.9,0,7,3.1,7,7V531.9z"
                class="colorfff svgShape"></path>
            <g fill="#167ffc" class="color000 svgShape">
                <path fill="#ffb86c"
                    d="M1235.3,563.6c0,36.4-29.5,65.9-65.9,65.9c-36.4,0-65.9-29.5-65.9-65.9c0-36.4,29.5-65.9,65.9-65.9						C1205.8,497.7,1235.3,527.2,1235.3,563.6z"
                    class="colorffd16c svgShape"></path>
                <path fill="#b3b3c3"
                    d="M1260.8,402.5c0-9.6-6.5-16.8-16.1-16.8h-148.8c-9.6,0-17.9,7.2-17.9,16.8v62.8c0,9.6,8.3,17,17.9,17						h148.8c9.6,0,16.1-7.3,16.1-17V402.5z"
                    class="colorb3bcc3 svgShape"></path>
                <line x1="1162.9" x2="1162.9" y1="383.1" y2="238.9" fill="none" stroke="#dbdbdb"
                    stroke-linecap="round" stroke-linejoin="round" stroke-miterlimit="10"
                    stroke-width="7" class="colorStrokedbdbdb svgStroke"></line>
                <path fill="#eaeaea"
                    d="M1365.1,564.7v-1.9c0-55.8-43.5-99.8-99.3-99.8H1073c-55.8,0-102,44.1-102,99.8v1.9H1365.1z"
                    class="coloreaeaea svgShape"></path>
            </g>
            <g fill="#167ffc" class="color000 svgShape">
                <path fill="#53d86a"
                    d="M950.3,1545.3l161.3-242.7c50.2-67-60.4-125.7-91-51.1l-80.3,175l41.1-221.9						c12.4-111.1-161.4-113.2-144.7,1.7l29.4,204.5l-76.7-156.3c-32.3-73.8-141.5-12.5-89.7,53.2l168,233.3L950.3,1545.3z"
                    class="colorc0c5c9 svgShape"></path>
                <polygon fill="#ffb669" points="789.3 1540.6 841 1720.8 983.8 1720.8 1027.7 1540.6"
                    class="colorffd169 svgShape"></polygon>
            </g>
        </g>
    </switch>
</svg>